HIERARCHY
ROOT Hips
{
  OFFSET 0 0 0
  CHANNELS 6 Xposition Yposition Zposition Zrotation Xrotation Yrotation
  JOINT LeftUpLeg
  {
    OFFSET 4.06525 -3.90732 0.41711
    CHANNELS 3 Zrotation Xrotation Yrotation
    JOINT LeftLeg
    {
      OFFSET 0.00023 -18.4821 0.00367
      CHANNELS 3 Zrotation Xrotation Yrotation
      JOINT LeftFoot
      {
        OFFSET -0.00172 -15.2898 -0.02629
        CHANNELS 3 Zrotation Xrotation Yrotation
        JOINT LeftToeBase
        {
          OFFSET 0.36743 -3.19131 5.54287
          CHANNELS 3 Zrotation Xrotation Yrotation
          JOINT LeftToeBase2
          {
            OFFSET 0.08751 0.04849 1.36758
            CHANNELS 3 Zrotation Xrotation Yrotation
            JOINT LeftToeBase3
            {
              OFFSET 0.07484 0.06785 1.16707
            }
          }
        }
      }
    }
  }
  JOINT RightUpLeg
  {
    OFFSET -4.06526 -3.90731 0.41712
    CHANNELS 3 Zrotation Xrotation Yrotation
    JOINT RightLeg
    {
      OFFSET -0.00029 -18.4821 0.0044
      CHANNELS 3 Zrotation Xrotation Yrotation
      JOINT RightFoot
      {
        OFFSET 0.0016 -15.2898 -0.02569
        CHANNELS 3 Zrotation Xrotation Yrotation
        JOINT RightToeBase
        {
          OFFSET -0.3542 -3.19109 5.54386
          CHANNELS 3 Zrotation Xrotation Yrotation
          JOINT RightToeBase2
          {
            OFFSET -0.08424 0.04854 1.36778
            CHANNELS 3 Zrotation Xrotation Yrotation
            JOINT RightToeBase3
            {
              OFFSET -0.07205 0.0679 1.16725
            }
          }
        }
      }
    }
  }
  JOINT Spine
  {
    OFFSET 1e-005 4.46517 -0.10224
    CHANNELS 3 Zrotation Xrotation Yrotation
    JOINT Spine1
    {
      OFFSET 1e-005 4.46212 -0.1824
      CHANNELS 3 Zrotation Xrotation Yrotation
      JOINT Spine2
      {
        OFFSET 0 4.37937 -0.881
        CHANNELS 3 Zrotation Xrotation Yrotation
        JOINT Spine3
        {
          OFFSET 1e-005 4.68286 0.21414
          CHANNELS 3 Zrotation Xrotation Yrotation
          JOINT Neck
          {
            OFFSET 0 1.76964 0.82454
            CHANNELS 3 Zrotation Xrotation Yrotation
            JOINT Head
            {
              OFFSET 0 1.6961 0.93145
              CHANNELS 3 Zrotation Xrotation Yrotation
              JOINT Head_End
              {
                OFFSET 1e-005 7.8375 1.52603
              }
            }
          }
          JOINT LeftShoulder
          {
            OFFSET 1.19381 -0.75881 -0.02768
            CHANNELS 3 Zrotation Xrotation Yrotation
            JOINT LeftArm
            {
              OFFSET 5.18779 -2e-005 1e-005
              CHANNELS 3 Zrotation Xrotation Yrotation
              JOINT LeftForeArm
              {
                OFFSET 12.7364 -4e-005 2e-005
                CHANNELS 3 Zrotation Xrotation Yrotation
                JOINT LeftHand
                {
                  OFFSET 9.21452 -2e-005 1e-005
                  CHANNELS 3 Zrotation Xrotation Yrotation
                }
              }
            }
          }
          JOINT RightShoulder
          {
            OFFSET -1.19381 -0.75881 -0.02767
            CHANNELS 3 Zrotation Xrotation Yrotation
            JOINT RightArm
            {
              OFFSET -5.18779 1e-005 -1e-005
              CHANNELS 3 Zrotation Xrotation Yrotation
              JOINT RightForeArm
              {
                OFFSET -12.7364 3e-005 -2e-005
                CHANNELS 3 Zrotation Xrotation Yrotation
                JOINT RightHand
                {
                  OFFSET -9.21452 2e-005 -1e-005
                  CHANNELS 3 Zrotation Xrotation Yrotation
                }
              }
            }
          }
        }
      }
    }
  }
}
MOTION
Frames: 17
Frame Time: 	0.0166667
-0.75182 9.5125 -7.68946 -5.04435 -48.3168 -22.3815 68.8467 -58.5469 54.1936  175.967 60.9612 151.512  -8.57484 3.10591 3.6418  -1.24893e-007 -2.07006e-008 -0.000226004  -0 0 -0   -28.4113 -76.6361 -23.6549  143.416 43.0382 -156.574  -24.6047 -8.17278 3.7629  -0.00886628 -0.00420284 1.91314e-008  -0 0 -0   0.0799075 53.2215 -12.214  1.86694 9.83805 -3.91141  1.83625 9.93404 -3.85799  1.80886 10.0206 -3.81557  -6.02442e-014 4.01545e-014 -9.14409e-014  -11.8855 25.0231 14.8225   5.42942 0.395052 1.78622  -16.9032 -20.219 -54.5736  19.9785 9.67747 -59.099  -7.71679 0.126818 2.91095  0.980659 -0.346826 -3.05628  63.5225 -0.261779 16.1924  -1.38952 0.378119 32.2759  -31.1842 10.9557 -26.9066 
-0.733824 9.42078 -7.95136 -4.61139 -48.7037 -21.7873 68.4531 -58.616 53.9464  177.624 61.8189 150.056  -8.3567 4.4364 3.73352  -1.24893e-007 -2.07006e-008 -0.000226004  -0 0 -0   -29.2377 -76.6904 -24.4992  143.14 43.8036 -156.603  -24.5045 -7.19936 3.89309  -0.00951343 -0.0042449 1.91315e-008  -0 0 -0   -0.313387 53.7869 -12.0614  1.77931 9.83495 -3.9008  1.75317 9.93021 -3.84497  1.7297 10.0165 -3.79942  -6.02442e-014 4.01545e-014 -9.14409e-014  -11.3798 24.9534 14.7416   5.64223 0.426241 1.78214  -16.5786 -20.3462 -54.7177  20.1615 9.61557 -59.4265  -7.82229 0.126469 2.9161  0.962717 -0.343379 -3.05725  64.2819 -0.676597 16.3819  -1.56746 0.640935 32.4307  -31.1126 10.935 -26.904 
-0.706083 9.32366 -8.21234 -4.19012 -49.0569 -21.2151 68.1354 -58.6809 53.7724  179.447 62.6297 148.469  -8.08973 5.77652 3.80974  -1.24893e-007 -2.07006e-008 -0.000226004  -0 0 -0   -30.2511 -76.7521 -25.5129  142.827 44.5287 -156.52  -24.388 -6.20341 4.01992  -0.0102369 -0.00428658 1.91314e-008  -0 0 -0   -0.687072 54.3299 -11.9259  1.68387 9.83886 -3.88949  1.66223 9.93272 -3.83241  1.64281 10.018 -3.78496  -6.02442e-014 4.01545e-014 -9.14409e-014  -10.8948 24.8472 14.6762   5.88023 0.459311 1.77042  -16.2247 -20.4966 -54.7937  20.2834 9.51436 -59.74  -7.84191 0.127543 2.91297  0.935214 -0.337626 -3.05955  65.0421 -1.08336 16.6064  -1.74751 0.900142 32.6109  -31.0716 10.934 -26.9285 
-0.671344 9.22215 -8.47292 -3.77445 -49.3757 -20.6679 67.8795 -58.7339 53.6562  -178.57 63.3977 146.748  -7.78598 7.11614 3.87132  -1.24893e-007 -2.07006e-008 -0.000226004  -0 0 -0   -31.4396 -76.8185 -26.6854  142.458 45.2152 -156.297  -24.2496 -5.17564 4.14259  -0.0110487 -0.00432786 1.91315e-008  -0 0 -0   -1.04858 54.8508 -11.8002  1.58445 9.85292 -3.87706  1.56696 9.9449 -3.81965  1.55142 10.0287 -3.77129  -6.02442e-014 4.01545e-014 -9.14409e-014  -10.5209 24.6793 14.6603   6.13254 0.493702 1.75584  -15.8939 -20.6848 -54.8115  20.4169 9.40674 -60.0762  -7.62435 0.132464 2.90224  0.898171 -0.329476 -3.06512  65.8022 -1.47921 16.8607  -1.92934 1.14948 32.8443  -31.0656 10.9462 -26.9613 
-0.628219 9.11654 -8.73049 -3.35828 -49.6716 -20.1367 67.6484 -58.7843 53.5624  -176.423 64.1083 144.891  -7.44616 8.44125 3.91478  -1.24893e-007 -2.07006e-008 -0.000226004  -0 0 -0   -32.8344 -76.8756 -28.0463  142.057 45.8569 -155.963  -24.0832 -4.13338 4.2576  -0.011961 -0.00436873 1.91315e-008  -0 0 -0   -1.40781 55.3461 -11.6755  1.48203 9.87464 -3.86172  1.46821 9.96433 -3.80464  1.45622 10.0462 -3.75615  -6.02442e-014 4.01545e-014 -9.14409e-014  -10.2348 24.4734 14.6907   6.39386 0.529374 1.74088  -15.5911 -20.9034 -54.7815  20.5393 9.29091 -60.4103  -7.39172 0.139328 2.92747  0.855568 -0.319833 -3.07276  66.5115 -1.79923 17.1294  -2.06885 1.32086 33.1162  -31.0972 10.9671 -26.9905 
-0.577052 9.00619 -8.98268 -2.93396 -49.9629 -19.6226 67.3969 -58.826 53.4444  -174.113 64.7487 142.899  -7.077 9.7333 3.93941  -1.24893e-007 -2.07006e-008 -0.000226004  -0 0 -0   -34.41 -76.911 -29.5728  141.644 46.4487 -155.548  -23.8763 -3.09161 4.36063  -0.0129857 -0.00440919 1.91315e-008  -0 0 -0   -1.79904 55.818 -11.5207  1.3782 9.90511 -3.84116  1.36731 9.99237 -3.7847  1.35822 10.0721 -3.73642  -6.02442e-014 4.01545e-014 -9.14409e-014  -10.0513 24.2296 14.7793   6.66442 0.567813 1.7317  -15.3445 -21.1651 -54.7015  20.666 9.18262 -60.7357  -7.33922 0.14663 3.05881  0.810653 -0.309379 -3.0822  67.1241 -1.98519 17.4008  -2.12341 1.34833 33.4307  -31.1646 10.9882 -26.9966 
-0.515354 8.89492 -9.22931 -2.4949 -50.2276 -19.0951 67.1338 -58.8973 53.3201  -171.641 65.3163 140.789  -6.67287 10.9942 3.94285  -1.24893e-007 -2.07006e-008 -0.000226004  -0 0 -0   -36.3011 -76.9136 -31.3898  141.217 46.9908 -155.029  -23.6424 -2.04634 4.45208  -0.0141348 -0.00444921 1.91315e-008  -0 0 -0   -2.15963 56.25 -11.3929  1.27484 9.93693 -3.8165  1.26635 10.0214 -3.76122  1.25971 10.0987 -3.7138  -6.02442e-014 4.01545e-014 -9.14409e-014  -9.94417 23.9925 14.9116   6.91923 0.604756 1.72529  -15.1373 -21.427 -54.6211  20.7551 9.06206 -61.0353  -7.39634 0.152436 3.21791  0.765587 -0.29877 -3.09227  67.6157 -2.02681 17.6747  -2.08102 1.22371 33.7562  -31.2857 11.016 -26.9836 
-0.438219 8.7866 -9.46937 -2.02575 -50.4497 -18.5145 66.8384 -59.0436 53.1803  -168.996 65.8009 138.567  -6.22409 12.2191 3.92084  -1.24893e-007 -2.07006e-008 -0.000226004  -0 0 -0   -38.692 -76.8524 -33.6687  140.785 47.4785 -154.381  -23.3921 -1.00055 4.53126  -0.0154206 -0.00448879 1.91315e-008  -0 0 -0   -2.42038 56.6279 -11.3559  1.17522 9.96407 -3.78784  1.16849 10.0453 -3.7345  1.16378 10.1196 -3.68878  -6.02442e-014 4.01545e-014 -9.14409e-014  -9.89742 23.798 15.0801   7.1397 0.638405 1.72531  -14.9491 -21.6502 -54.5986  20.7516 8.90672 -61.2833  -7.59379 0.153291 3.34876  0.72203 -0.288429 -3.1024  67.9449 -1.90507 17.9473  -1.91418 0.914511 34.0739  -31.4918 11.0624 -26.9594 
-0.352972 8.68042 -9.70353 -1.5475 -50.6272 -17.9105 66.5506 -59.2387 53.056  -166.246 66.213 136.275  -5.74919 13.41 3.87816  -1.24893e-007 -2.07006e-008 -0.000226004  -0 0 -0   -41.3461 -76.7525 -36.1882  140.341 47.9229 -153.634  -23.1211 0.0526368 4.59956  -0.016855 -0.00452791 1.91315e-008  -0 0 -0   -2.62257 56.9488 -11.3732  1.07684 9.98327 -3.75628  1.07176 10.0609 -3.70547  1.06897 10.1319 -3.66206  -6.02442e-014 4.01545e-014 -9.14409e-014  -9.8929 23.6708 15.2761   7.31053 0.665111 1.72827  -14.8234 -21.8396 -54.6058  20.7089 8.74351 -61.5005  -7.8226 0.152061 3.45404  0.684699 -0.279609 -3.11079  68.1151 -1.59344 18.2269  -1.62204 0.431476 34.3536  -31.7403 11.1022 -26.8917 
-0.266408 8.57695 -9.93234 -1.0713 -50.7523 -17.2944 66.3105 -59.4618 52.9796  -163.422 66.5574 133.919  -5.24614 14.572 3.81625  -1.24893e-007 -2.07006e-008 -0.000226004  -0 0 -0   -44.1193 -76.6353 -38.8138  139.879 48.332 -152.802  -22.8318 1.11771 4.65855  -0.01845 -0.00456657 1.91316e-008  -0 0 -0   -2.7812 57.2016 -11.4352  0.977305 9.98943 -3.72259  0.974205 10.0631 -3.67495  0.973681 10.1304 -3.63446  -6.02442e-014 4.01545e-014 -9.14409e-014  -9.90797 23.6553 15.4957   7.40466 0.67995 1.73142  -14.793 -21.9752 -54.6318  20.618 8.56523 -61.6891  -7.9461 0.14956 3.51363  0.658029 -0.273509 -3.11579  68.1305 -1.07602 18.5187  -1.20943 -0.207942 34.5554  -32.0269 11.1303 -26.7731 
-0.175283 8.47598 -10.1562 -0.615059 -50.8268 -16.6846 66.0945 -59.7405 52.9335  -160.641 66.8581 131.62  -4.7702 15.689 3.74863  -1.24893e-007 -2.07006e-008 -0.000226004  -0 0 -0   -46.9746 -76.5013 -41.5127  139.404 48.7101 -151.9  -22.5152 2.19674 4.70667  -0.0208763 -0.00460476 1.91316e-008  -0 0 -0   -2.91462 57.3953 -11.5155  0.879338 9.98217 -3.68797  0.878701 10.0518 -3.64374  0.880919 10.1155 -3.60634  -6.02442e-014 4.01545e-014 -9.14409e-014  -9.94113 23.7271 15.7194   7.43838 0.68519 1.73202  -14.8685 -22.0904 -54.6838  20.6135 8.44857 -61.8769  -8.07762 0.146592 3.54066  0.64448 -0.270677 -3.11669  67.9424 -0.300396 18.8264  -0.638616 -1.06025 34.6971  -32.2695 11.0959 -26.5394 
-0.0789332 8.37823 -10.3746 -0.198109 -50.8508 -16.0996 65.8809 -60.096 52.8997  -158.028 67.1443 129.494  -4.37777 16.7397 3.69495  -1.24893e-007 -2.07006e-008 -0.000226004  -0 0 -0   -49.8327 -76.3609 -44.2117  138.922 49.0621 -150.952  -22.177 3.28426 4.74372  -0.0235732 -0.00464245 1.91316e-008  -0 0 -0   -3.04035 57.5308 -11.5959  0.784843 9.96009 -3.6546  0.787364 10.0259 -3.61371  0.792947 10.0861 -3.57926  -6.02442e-014 4.01545e-014 -9.14409e-014  -9.99934 23.8824 15.9338   7.42055 0.68121 1.72717  -15.0778 -22.2182 -54.7467  20.8577 8.4759 -62.1095  -8.25718 0.142178 3.55848  0.643464 -0.271149 -3.11371  67.4972 0.79259 19.1565  0.173791 -2.24532 34.7852  -32.3882 10.9429 -26.1081 
0.0234451 8.2815 -10.5914 0.173871 -50.8248 -15.5508 65.6898 -60.5232 52.8982  -155.57 67.4388 127.53  -4.07394 17.7453 3.66066  -1.24893e-007 -2.07006e-008 -0.000226004  -0 0 -0   -52.7262 -76.2198 -46.9453  138.42 49.3955 -149.941  -21.7745 4.4061 4.76437  -0.0264386 -0.00467964 1.91317e-008  -0 0 -0   -3.18359 57.6208 -11.6348  0.693693 9.92142 -3.6203  0.700367 9.98362 -3.58248  0.710197 10.0406 -3.55057  -6.02442e-014 4.01545e-014 -9.14409e-014  -10.0355 24.1032 16.1159   7.34414 0.667333 1.71886  -15.4012 -22.3391 -54.8751  21.2619 8.61533 -62.3346  -8.56767 0.130942 3.51604  0.668564 -0.278268 -3.10226  66.8056 2.19773 19.5119  1.0853 -3.55712 34.8339  -32.3717 10.6865 -25.5271 
0.134358 8.18567 -10.8084 0.488352 -50.7479 -15.0533 65.5146 -61.0409 52.9259  -153.33 67.7789 125.79  -3.90443 18.7043 3.6629  -1.24893e-007 -2.07006e-008 -0.000226004  -0 0 -0   -55.6395 -76.0894 -49.7048  137.903 49.6996 -148.913  -21.2769 5.53664 4.75447  -0.0296721 -0.00471632 1.91317e-008  -0 0 -0   -3.37663 57.677 -11.5751  0.606598 9.86364 -3.58289  0.618881 9.92264 -3.54758  0.634241 9.97682 -3.51745  -6.02442e-014 4.01545e-014 -9.14409e-014  -9.99047 24.3707 16.2188   7.19463 0.641132 1.70568  -15.8443 -22.444 -55.1485  21.7931 8.86673 -62.5164  -9.15168 0.108073 3.34696  0.738483 -0.296994 -3.07563  65.8123 3.97492 19.8961  2.02564 -4.90033 34.8252  -32.1103 10.2885 -24.765 
0.249228 8.08528 -11.0308 0.74902 -50.6256 -14.6128 65.4182 -61.5975 53.0372  -151.162 68.1523 124.125  -3.80613 19.6647 3.68931  -1.24893e-007 -2.07006e-008 -0.000226004  -0 0 -0   -58.672 -75.9607 -52.578  137.318 50.0322 -147.709  -20.6503 6.8266 4.72167  -0.0337084 -0.00475248 1.91317e-008  -0 0 -0   -3.61702 57.7039 -11.4434  0.523121 9.78753 -3.54445  0.542213 9.84373 -3.51104  0.564138 9.89556 -3.48191  -6.02442e-014 4.01545e-014 -9.14409e-014  -9.90567 24.6844 16.2957   7.00182 0.606992 1.68674  -16.3593 -22.5283 -55.4757  22.4422 9.22487 -62.6573  -9.87086 0.0824688 3.1196  0.837303 -0.323182 -3.03897  64.6575 5.99248 20.316  2.84881 -6.07093 34.8229  -31.817 9.87408 -23.9551 
0.364639 7.97503 -11.2659 0.944773 -50.462 -14.2534 65.4728 -62.1467 53.2982  -148.946 68.5596 122.418  -3.72793 20.6801 3.72589  -1.24893e-007 -2.07006e-008 -0.000226004  -0 0 -0   -61.9315 -75.8332 -55.6645  136.618 50.4309 -146.194  -19.811 8.4209 4.64036  -0.0394102 -0.0047881 1.91319e-008  -0 0 -0   -3.91749 57.7045 -11.2476  0.444275 9.69265 -3.50966  0.471448 9.74662 -3.47736  0.501019 9.79671 -3.44825  -6.02442e-014 4.01545e-014 -9.14409e-014  -9.81914 25.0329 16.3871   6.78338 0.566618 1.65893  -16.9053 -22.5755 -55.7654  23.1862 9.69318 -62.7349  -10.6691 0.0558001 2.84722  0.955745 -0.354564 -2.99462  63.4773 8.1557 20.822  3.29875 -6.71129 34.8024  -31.6487 9.53594 -23.2509 
0.479253 7.85395 -11.5082 1.11151 -50.2608 -13.9316 65.6804 -62.6905 53.7066  -146.654 68.9679 120.597  -3.66938 21.7352 3.77421  -1.24893e-007 -2.07006e-008 -0.000226004  -0 0 -0   -65.346 -75.6757 -58.8916  135.764 50.9365 -144.328  -18.865 10.3307 4.52909  -0.0445473 -0.00482318 1.91318e-008  -0 0 -0   -4.26261 57.6929 -10.9895  0.366202 9.5794 -3.46844  0.402266 9.63143 -3.43662  0.440127 9.68005 -3.40672  -6.02442e-014 4.01545e-014 -9.14409e-014  -9.68254 25.431 16.4854   6.56233 0.526281 1.63158  -17.4646 -22.62 -56.0957  24.0311 10.252 -62.7938  -11.4417 0.0359421 2.63016  1.09253 -0.390501 -2.94431  62.2362 10.4125 21.2902  3.64244 -7.17775 34.9591  -31.6724 9.27371 -22.6134 
